<?xml version="1.0" standalone="no"?>
<!DOCTYPE svg PUBLIC "-//W3C//DTD SVG 20010904//EN"
 "http://www.w3.org/TR/2001/REC-SVG-20010904/DTD/svg10.dtd">
<svg version="1.0" xmlns="http://www.w3.org/2000/svg"
 width="384.000000pt" height="384.000000pt" viewBox="0 0 384.000000 384.000000"
 preserveAspectRatio="xMidYMid meet">
<metadata>
Created by potrace 1.11, written by Peter Selinger 2001-2013
</metadata>
<g transform="translate(0.000000,384.000000) scale(0.100000,-0.100000)"
fill="#000000" stroke="none">
<path d="M1680 3800 l0 -40 40 0 40 0 0 -80 0 -80 -40 0 -40 0 0 40 0 40 -80
0 -80 0 0 -40 0 -40 40 0 40 0 0 -40 0 -40 40 0 40 0 0 -40 0 -40 -80 0 -80 0
0 40 0 40 -40 0 -40 0 0 -80 0 -80 80 0 80 0 0 -40 0 -40 80 0 80 0 0 40 0 40
-40 0 -40 0 0 40 0 40 40 0 40 0 0 80 0 80 40 0 40 0 0 80 0 80 -40 0 -40 0 0
40 0 40 -40 0 -40 0 0 -40z"/>
<path d="M2000 3760 l0 -80 40 0 40 0 0 80 0 80 -40 0 -40 0 0 -80z"/>
<path d="M2160 3680 l0 -80 40 0 40 0 0 40 0 40 40 0 40 0 0 40 0 40 -80 0
-80 0 0 -80z"/>
<path d="M2400 3640 l0 -40 -40 0 -40 0 0 -40 0 -40 -40 0 -40 0 0 -40 0 -40
80 0 80 0 0 40 0 40 40 0 40 0 0 80 0 80 -40 0 -40 0 0 -40z"/>
<path d="M2000 3560 l0 -40 -40 0 -40 0 0 -80 0 -80 -40 0 -40 0 0 -80 0 -80
-40 0 -40 0 0 -80 0 -80 -40 0 -40 0 0 -80 0 -80 -40 0 -40 0 0 -80 0 -80 -40
0 -40 0 0 -80 0 -80 520 0 520 0 0 80 0 80 120 0 120 0 0 40 0 40 120 0 120 0
0 40 0 40 -120 0 -120 0 0 -40 0 -40 -120 0 -120 0 0 -40 0 -40 -40 0 -40 0 0
80 0 80 -40 0 -40 0 0 80 0 80 -40 0 -40 0 0 80 0 80 -40 0 -40 0 0 80 0 80
-40 0 -40 0 0 80 0 80 -40 0 -40 0 0 40 0 40 -40 0 -40 0 0 -40z"/>
<path d="M2720 3560 l0 -40 -40 0 -40 0 0 -40 0 -40 -40 0 -40 0 0 -40 0 -40
-80 0 -80 0 0 -40 0 -40 80 0 80 0 0 40 0 40 80 0 80 0 0 40 0 40 40 0 40 0 0
80 0 80 -40 0 -40 0 0 -40z"/>
<path d="M1200 3320 l0 -40 40 0 40 0 0 -40 0 -40 40 0 40 0 0 -40 0 -40 80 0
80 0 0 -40 0 -40 40 0 40 0 0 80 0 80 -80 0 -80 0 0 40 0 40 -40 0 -40 0 0 40
0 40 -80 0 -80 0 0 -40z"/>
<path d="M2800 3240 l0 -40 -80 0 -80 0 0 -40 0 -40 -80 0 -80 0 0 -40 0 -40
120 0 120 0 0 40 0 40 80 0 80 0 0 40 0 40 40 0 40 0 0 40 0 40 -80 0 -80 0 0
-40z"/>
<path d="M1040 3160 l0 -40 40 0 40 0 0 -40 0 -40 40 0 40 0 0 -40 0 -40 120
0 120 0 0 40 0 40 -80 0 -80 0 0 40 0 40 -80 0 -80 0 0 40 0 40 -40 0 -40 0 0
-40z"/>
<path d="M1280 2840 l0 -40 -120 0 -120 0 0 -40 0 -40 160 0 160 0 0 40 0 40
40 0 40 0 0 40 0 40 -80 0 -80 0 0 -40z"/>
<path d="M1280 2600 l0 -40 -40 0 -40 0 0 -40 0 -40 80 0 80 0 0 40 0 40 40 0
40 0 0 40 0 40 -80 0 -80 0 0 -40z"/>
<path d="M2640 2600 l0 -40 40 0 40 0 0 -40 0 -40 40 0 40 0 0 -40 0 -40 80 0
80 0 0 40 0 40 -40 0 -40 0 0 40 0 40 -80 0 -80 0 0 40 0 40 -40 0 -40 0 0
-40z"/>
<path d="M1600 2440 l0 -40 -80 0 -80 0 0 -40 0 -40 -80 0 -80 0 0 -40 0 -40
-40 0 -40 0 0 -80 0 -80 -40 0 -40 0 0 -40 0 -40 -40 0 -40 0 0 -80 0 -80 -40
0 -40 0 0 -120 0 -120 -40 0 -40 0 0 -40 0 -40 -40 0 -40 0 0 -80 0 -80 -40 0
-40 0 0 -40 0 -40 -40 0 -40 0 0 -80 0 -80 -40 0 -40 0 0 -40 0 -40 -40 0 -40
0 0 -80 0 -80 -40 0 -40 0 0 -40 0 -40 -40 0 -40 0 0 -80 0 -80 -40 0 -40 0 0
-80 0 -80 -40 0 -40 0 0 -80 0 -80 -40 0 -40 0 0 -80 0 -80 40 0 40 0 0 -40 0
-40 120 0 120 0 0 -40 0 -40 1680 0 1680 0 0 40 0 40 -40 0 -40 0 0 80 0 80
-40 0 -40 0 0 120 0 120 -40 0 -40 0 0 80 0 80 -40 0 -40 0 0 80 0 80 -40 0
-40 0 0 80 0 80 -40 0 -40 0 0 120 0 120 -40 0 -40 0 0 80 0 80 -40 0 -40 0 0
80 0 80 -40 0 -40 0 0 120 0 120 -40 0 -40 0 0 80 0 80 -40 0 -40 0 0 80 0 80
-40 0 -40 0 0 80 0 80 -80 0 -80 0 0 80 0 80 -40 0 -40 0 0 40 0 40 -40 0 -40
0 0 -40 0 -40 40 0 40 0 0 -40 0 -40 -80 0 -80 0 0 80 0 80 -80 0 -80 0 0 -40
0 -40 40 0 40 0 0 -40 0 -40 -80 0 -80 0 0 80 0 80 -40 0 -40 0 0 -80 0 -80
-80 0 -80 0 0 80 0 80 -40 0 -40 0 0 -40 0 -40 -40 0 -40 0 0 -40 0 -40 -40 0
-40 0 0 80 0 80 -40 0 -40 0 0 -40z"/>
</g>
</svg>
